<svg xmlns="http://www.w3.org/2000/svg" viewBox="0 0 24 24" fill="none" stroke="currentColor" stroke-width="1.8" stroke-linecap="round" stroke-linejoin="round"><circle cx="12" cy="12" r="3"/><path d="M19.4 15a1.7 1.7 0 0 0 .34 1.88l.06.06-2.86 2.86-.06-.06A1.7 1.7 0 0 0 15 19.4a1.7 1.7 0 0 0-1 .6 1.7 1.7 0 0 0-.4 1V21H9.5v-.1a1.7 1.7 0 0 0-1.1-1.5 1.7 1.7 0 0 0-1.88.34l-.06.06-2.86-2.86.06-.06A1.7 1.7 0 0 0 4 15a1.7 1.7 0 0 0-1.6-1H2v-4h.4A1.7 1.7 0 0 0 4 9a1.7 1.7 0 0 0-.34-1.88l-.06-.06L6.46 4.2l.06.06A1.7 1.7 0 0 0 8.4 4a1.7 1.7 0 0 0 1.1-1.5V2h4v.5A1.7 1.7 0 0 0 14.6 4a1.7 1.7 0 0 0 1.88-.34l.06-.06 2.86 2.86-.06.06A1.7 1.7 0 0 0 19 8.4a1.7 1.7 0 0 0 1.6 1h.4v4h-.4a1.7 1.7 0 0 0-1.2 1.6z"/></svg>
